<svg xmlns="http://www.w3.org/2000/svg" viewBox="0 0 64 64">
  <defs>
    <linearGradient id="acapolite-blue" x1="8" x2="56" y1="8" y2="56" gradientUnits="userSpaceOnUse">
      <stop offset="0" stop-color="#1d4ed8" />
      <stop offset="1" stop-color="#0f172a" />
    </linearGradient>
  </defs>
  <rect width="64" height="64" rx="16" fill="url(#acapolite-blue)" />
  <path
    fill="#f8fafc"
    d="M31.9 13c-1.6 0-3.1.9-3.9 2.4L14.8 40.8a4.4 4.4 0 0 0 3.9 6.5h5.8c1.7 0 3.2-.9 4-2.4l3.4-6.5 3.5 6.5c.8 1.5 2.3 2.4 4 2.4h5.9a4.4 4.4 0 0 0 3.9-6.5L35.8 15.4A4.4 4.4 0 0 0 31.9 13Zm0 11.2 6.5 12.2H25.3l6.6-12.2Z"
  />
</svg>
